<?xml version="1.0" encoding="UTF-8"?>
<svg width="120" height="120" viewBox="0 0 120 120" fill="none" xmlns="http://www.w3.org/2000/svg">
  <!-- Fun avatar - bright gradient theme -->
  <defs>
    <linearGradient id="rainbowBg" x1="0%" y1="0%" x2="100%" y2="100%">
      <stop offset="0%" style="stop-color:#FF6B6B"/>
      <stop offset="25%" style="stop-color:#4ECDC4"/>
      <stop offset="50%" style="stop-color:#45B7D1"/>
      <stop offset="75%" style="stop-color:#96CEB4"/>
      <stop offset="100%" style="stop-color:#FFEAA7"/>
    </linearGradient>
    <linearGradient id="hairGrad" x1="0%" y1="0%" x2="100%" y2="100%">
      <stop offset="0%" style="stop-color:#FF6B35"/>
      <stop offset="50%" style="stop-color:#F7931E"/>
      <stop offset="100%" style="stop-color:#FFD23F"/>
    </linearGradient>
  </defs>
  
  <!-- Background -->
  <circle cx="60" cy="60" r="60" fill="url(#rainbowBg)"/>
  
  <!-- Face -->
  <circle cx="60" cy="55" r="28" fill="#FFDBCB" stroke="#333" stroke-width="2"/>
  
  <!-- Crazy hair -->
  <circle cx="45" cy="30" r="8" fill="url(#hairGrad)"/>
  <circle cx="60" cy="25" r="10" fill="url(#hairGrad)"/>
  <circle cx="75" cy="30" r="8" fill="url(#hairGrad)"/>
  <circle cx="35" cy="45" r="6" fill="url(#hairGrad)"/>
  <circle cx="85" cy="45" r="6" fill="url(#hairGrad)"/>
  <circle cx="50" cy="20" r="5" fill="url(#hairGrad)"/>
  <circle cx="70" cy="20" r="5" fill="url(#hairGrad)"/>
  
  <!-- Cartoon outline -->
  <circle cx="60" cy="55" r="28" fill="none" stroke="#333" stroke-width="3"/>
  
  <!-- Big cartoon eyes -->
  <circle cx="50" cy="48" r="6" fill="#FFF" stroke="#333" stroke-width="2"/>
  <circle cx="70" cy="48" r="6" fill="#FFF" stroke="#333" stroke-width="2"/>
  <circle cx="50" cy="48" r="4" fill="#333"/>
  <circle cx="70" cy="48" r="4" fill="#333"/>
  <circle cx="52" cy="46" r="2" fill="#FFF"/>
  <circle cx="72" cy="46" r="2" fill="#FFF"/>
  
  <!-- Exaggerated eyebrows -->
  <path d="M42 40L58 42" stroke="#333" stroke-width="3" stroke-linecap="round"/>
  <path d="M62 42L78 40" stroke="#333" stroke-width="3" stroke-linecap="round"/>
  
  <!-- Big nose -->
  <circle cx="60" cy="58" r="3" fill="#FFB6A3" stroke="#333" stroke-width="1"/>
  
  <!-- Big smile -->
  <path d="M48 68C48 75 53 80 60 80C67 80 72 75 72 68" stroke="#333" stroke-width="3" fill="none" stroke-linecap="round"/>
  
  <!-- Teeth -->
  <rect x="55" y="68" width="2" height="4" fill="#FFF"/>
  <rect x="58" y="68" width="2" height="4" fill="#FFF"/>
  <rect x="61" y="68" width="2" height="4" fill="#FFF"/>
  <rect x="64" y="68" width="2" height="4" fill="#FFF"/>
  
  <!-- Funky shirt -->
  <path d="M32 88C32 83 42 78 60 78C78 78 88 83 88 88L88 120L32 120Z" fill="url(#rainbowBg)"/>
  
  <!-- Fun patterns -->
  <circle cx="45" cy="95" r="3" fill="#FFF" opacity="0.8"/>
  <circle cx="75" cy="95" r="3" fill="#FFF" opacity="0.8"/>
  <circle cx="60" cy="105" r="4" fill="#FFF" opacity="0.8"/>
  <path d="M40 110L80 110" stroke="#FFF" stroke-width="3" opacity="0.8"/>
</svg>