<?xml version="1.0" encoding="UTF-8"?>
<svg width="120" height="120" viewBox="0 0 120 120" fill="none" xmlns="http://www.w3.org/2000/svg">
  <!-- Man (early 40s) - creative green theme -->
  <circle cx="60" cy="60" r="60" fill="#E8F5E8"/>
  
  <!-- Face -->
  <circle cx="60" cy="55" r="30" fill="#FFDBCB"/>
  
  <!-- Hair - creative messy style -->
  <path d="M35 38C35 22 47 12 60 12C73 12 85 22 85 38C85 34 82 31 76 29C73 26 66 24 60 24C54 24 47 26 44 29C38 31 35 34 35 38Z" fill="#3E2723"/>
  
  <!-- Messy hair details -->
  <path d="M45 30C48 25 52 23 56 24" stroke="#2C1E18" stroke-width="1"/>
  <path d="M64 24C68 23 72 25 75 30" stroke="#2C1E18" stroke-width="1"/>
  
  <!-- Eyes with glasses -->
  <circle cx="52" cy="50" r="12" fill="none" stroke="#333" stroke-width="2"/>
  <circle cx="68" cy="50" r="12" fill="none" stroke="#333" stroke-width="2"/>
  <path d="M64 50L56 50" stroke="#333" stroke-width="2"/>
  
  <!-- Eyes behind glasses -->
  <circle cx="52" cy="50" r="3" fill="#333"/>
  <circle cx="68" cy="50" r="3" fill="#333"/>
  <circle cx="53" cy="49" r="1" fill="#FFF"/>
  <circle cx="69" cy="49" r="1" fill="#FFF"/>
  
  <!-- Eyebrows -->
  <path d="M47 43L57 44" stroke="#3E2723" stroke-width="2" stroke-linecap="round"/>
  <path d="M63 44L73 43" stroke="#3E2723" stroke-width="2" stroke-linecap="round"/>
  
  <!-- Nose -->
  <path d="M58 58L62 58L60 62Z" fill="#FFB6A3"/>
  
  <!-- Full beard and moustache -->
  <path d="M54 63C56 64 58 64 60 64C62 64 64 64 66 63" stroke="#3E2723" stroke-width="2.5" fill="none" stroke-linecap="round"/>
  
  <!-- Beard -->
  <path d="M48 65C48 72 53 78 60 78C67 78 72 72 72 65C72 68 70 71 67 73C64 75 56 75 53 73C50 71 48 68 48 65Z" fill="#3E2723"/>
  
  <!-- Mouth -->
  <path d="M57 67C57 68 58.5 69 60 69C61.5 69 63 68 63 67" stroke="#333" stroke-width="1.5" fill="none" stroke-linecap="round"/>
  
  <!-- Casual sweater -->
  <path d="M37 87C37 82 47 77 60 77C73 77 83 82 83 87L83 120L37 120Z" fill="#4CAF50"/>
  
  <!-- Sweater pattern -->
  <path d="M45 95L75 95" stroke="#388E3C" stroke-width="2"/>
  <path d="M45 105L75 105" stroke="#388E3C" stroke-width="2"/>
  <circle cx="50" cy="100" r="1.5" fill="#2E7D32"/>
  <circle cx="70" cy="100" r="1.5" fill="#2E7D32"/>
</svg>