<?xml version="1.0" encoding="UTF-8"?>
<svg width="120" height="120" viewBox="0 0 120 120" fill="none" xmlns="http://www.w3.org/2000/svg">
  <!-- Young boy (11 years old) - playful green theme -->
  <circle cx="60" cy="60" r="60" fill="#E8F5E8"/>
  
  <!-- Face -->
  <circle cx="60" cy="55" r="32" fill="#FFDBCB"/>
  
  <!-- Hair - slightly more mature style -->
  <path d="M28 45C28 28 42 18 60 18C78 18 92 28 92 45C92 38 87 32 80 30C75 25 68 25 60 25C52 25 45 25 40 30C33 32 28 38 28 45Z" fill="#4A5D23"/>
  
  <!-- Eyes -->
  <circle cx="52" cy="50" r="3.5" fill="#333"/>
  <circle cx="68" cy="50" r="3.5" fill="#333"/>
  <circle cx="53" cy="49" r="1" fill="#FFF"/>
  <circle cx="69" cy="49" r="1" fill="#FFF"/>
  
  <!-- Eyebrows -->
  <path d="M48 45L56 46" stroke="#4A5D23" stroke-width="1.5" stroke-linecap="round"/>
  <path d="M64 46L72 45" stroke="#4A5D23" stroke-width="1.5" stroke-linecap="round"/>
  
  <!-- Nose -->
  <circle cx="60" cy="58" r="1.5" fill="#FFB6A3"/>
  
  <!-- Mouth -->
  <path d="M56 65C56 67 58 68 60 68C62 68 64 67 64 65" stroke="#333" stroke-width="2" fill="none" stroke-linecap="round"/>
  
  <!-- Shirt -->
  <path d="M32 88C32 83 42 78 60 78C78 78 88 83 88 88L88 120L32 120Z" fill="#4CAF50"/>
  
  <!-- Shirt design -->
  <circle cx="60" cy="95" r="6" fill="#388E3C" opacity="0.7"/>
  <circle cx="60" cy="95" r="3" fill="#2E7D32"/>
</svg>