<?xml version="1.0" encoding="UTF-8"?>
<svg width="120" height="120" viewBox="0 0 120 120" fill="none" xmlns="http://www.w3.org/2000/svg">
  <!-- Young boy - playful orange theme -->
  <circle cx="60" cy="60" r="60" fill="#FFF3E0"/>
  
  <!-- Face -->
  <circle cx="60" cy="55" r="33" fill="#FFDBCB"/>
  
  <!-- Hair - curly style -->
  <circle cx="45" cy="35" r="8" fill="#D84315"/>
  <circle cx="55" cy="28" r="9" fill="#D84315"/>
  <circle cx="65" cy="28" r="9" fill="#D84315"/>
  <circle cx="75" cy="35" r="8" fill="#D84315"/>
  <circle cx="40" cy="45" r="6" fill="#D84315"/>
  <circle cx="80" cy="45" r="6" fill="#D84315"/>
  <circle cx="60" cy="25" r="7" fill="#D84315"/>
  
  <!-- Eyes -->
  <circle cx="52" cy="50" r="4" fill="#333"/>
  <circle cx="68" cy="50" r="4" fill="#333"/>
  <circle cx="53" cy="49" r="1.5" fill="#FFF"/>
  <circle cx="69" cy="49" r="1.5" fill="#FFF"/>
  
  <!-- Freckles -->
  <circle cx="48" cy="55" r="0.8" fill="#FFB6A3"/>
  <circle cx="72" cy="55" r="0.8" fill="#FFB6A3"/>
  <circle cx="45" cy="60" r="0.8" fill="#FFB6A3"/>
  
  <!-- Nose -->
  <circle cx="60" cy="58" r="1.5" fill="#FFB6A3"/>
  
  <!-- Big smile -->
  <path d="M54 64C54 68 57 71 60 71C63 71 66 68 66 64" stroke="#333" stroke-width="2" fill="none" stroke-linecap="round"/>
  
  <!-- Shirt -->
  <path d="M30 90C30 85 40 80 60 80C80 80 90 85 90 90L90 120L30 120Z" fill="#FF9800"/>
  
  <!-- Shirt stripes -->
  <rect x="30" y="95" width="60" height="3" fill="#F57C00"/>
  <rect x="30" y="105" width="60" height="3" fill="#F57C00"/>
</svg>